<svg width="31" height="28" viewBox="0 0 31 28" fill="none" xmlns="http://www.w3.org/2000/svg">
<path d="M25.1887 11.3733C25.1887 13.8831 24.2865 16.2015 22.7667 18.0825L30.4323 25.0104C31.1892 25.6939 31.1892 26.8039 30.4323 27.4874C29.6755 28.1709 28.4463 28.1709 27.6894 27.4874L20.0238 20.5595C17.9409 21.9374 15.3736 22.7467 12.5944 22.7467C5.63719 22.7467 0 17.656 0 11.3733C0 5.09066 5.63719 0 12.5944 0C19.5515 0 25.1887 5.09066 25.1887 11.3733ZM12.5944 19.2472C13.7394 19.2472 14.8732 19.0435 15.931 18.6478C16.9889 18.2521 17.9501 17.6721 18.7598 16.941C19.5694 16.2098 20.2117 15.3418 20.6498 14.3865C21.088 13.4312 21.3135 12.4073 21.3135 11.3733C21.3135 10.3393 21.088 9.31544 20.6498 8.36014C20.2117 7.40484 19.5694 6.53684 18.7598 5.80568C17.9501 5.07453 16.9889 4.49455 15.931 4.09885C14.8732 3.70315 13.7394 3.49949 12.5944 3.49949C11.4493 3.49949 10.3155 3.70315 9.25768 4.09885C8.19982 4.49455 7.23863 5.07453 6.42898 5.80568C5.61933 6.53684 4.97708 7.40484 4.5389 8.36014C4.10072 9.31544 3.87519 10.3393 3.87519 11.3733C3.87519 12.4073 4.10072 13.4312 4.5389 14.3865C4.97708 15.3418 5.61933 16.2098 6.42898 16.941C7.23863 17.6721 8.19982 18.2521 9.25768 18.6478C10.3155 19.0435 11.4493 19.2472 12.5944 19.2472Z" fill="#5E2612"/>
</svg>
